<?xml version="1.0" encoding="UTF-8" standalone="no"?>
<!DOCTYPE svg PUBLIC "-//W3C//DTD SVG 1.1//EN" "http://www.w3.org/Graphics/SVG/1.1/DTD/svg11.dtd">
<svg width="100%" height="100%" viewBox="0 0 1441 480" version="1.1" xmlns="http://www.w3.org/2000/svg" xmlns:xlink="http://www.w3.org/1999/xlink" xml:space="preserve" xmlns:serif="http://www.serif.com/" style="fill-rule:evenodd;clip-rule:evenodd;stroke-linejoin:round;stroke-miterlimit:2;">
    <g transform="matrix(1,0,0,1,7.3427,1.83569)">
        <rect x="-7.343" y="-2.614" width="1449.57" height="482.169" style="fill:rgb(27,16,66);"/>
    </g>
    <g id="LUVFANS" transform="matrix(2.0605,0,0,1.82679,1.42213,-47.4235)">
        <g transform="matrix(0.149224,0,0,0.149224,-165.551,7.93677)">
            <path d="M1205.82,137.841L1205.82,382.876L1315.98,382.876L1315.98,458.905L1211.75,458.905C1149.52,456.164 1119.85,436.82 1118.25,385.907L1118.25,137.841L1205.82,137.841Z" style="fill:rgb(0,110,137);fill-opacity:0.17;fill-rule:nonzero;"/>
        </g>
        <g transform="matrix(0.149224,0,0,0.149224,-165.551,7.93677)">
            <path d="M1585.25,137.841L1585.25,458.905L1434.61,458.905C1415.31,458.905 1398.91,456.716 1385.41,452.337C1376.47,449.362 1368.11,444.316 1360.35,437.198C1352.58,430.08 1346.42,421.673 1341.87,411.975C1335.28,398.519 1331.98,378.62 1331.98,352.276L1331.98,137.841L1419.54,137.841L1419.54,342.155C1419.54,352.511 1420.17,360.083 1421.43,364.869C1422.68,369.655 1425.04,373.539 1428.49,376.521C1431.16,378.875 1434.69,380.522 1439.08,381.464C1443.47,382.405 1449.44,382.876 1456.97,382.876L1497.69,382.876L1497.69,137.841L1585.25,137.841Z" style="fill:rgb(0,110,137);fill-opacity:0.17;fill-rule:nonzero;"/>
        </g>
        <g transform="matrix(0.149224,0,0,0.149224,-165.551,7.93677)">
            <path d="M1901.14,139.253L1794.51,458.905L1698.71,458.905L1598.2,137.841L1691.41,137.841L1731.66,284.846C1735.74,299.901 1741.08,327.029 1747.67,366.23C1753.32,331.731 1758.73,305.623 1763.91,287.906L1807.69,137.841L1901.14,139.253Z" style="fill:rgb(0,110,137);fill-opacity:0.17;fill-rule:nonzero;"/>
        </g>
        <g transform="matrix(0.149224,0,0,0.149224,109.731,5.68357)">
            <path d="M247.812,261.418L218.065,337.682L108.729,338.072L59.392,473.68L-28.171,473.68L41.942,259.86L247.812,261.418ZM295.35,156.961L261.001,233.225L48.175,234.784L73.179,156.679L295.35,156.961Z" style="fill:rgb(0,110,137);fill-opacity:0.17;fill-rule:nonzero;"/>
        </g>
        <g transform="matrix(0.149224,0,0,0.149224,92.3573,8.27735)">
            <path d="M521.411,139.743L589.814,458.905L288.45,458.905L324.92,355.212L404.951,355.212L399.316,382.876L481.066,382.876L426.08,139.743L521.411,139.743Z" style="fill:rgb(0,110,137);fill-opacity:0.17;fill-rule:nonzero;"/>
        </g>
        <g transform="matrix(0.149224,0,0,0.149224,92.3573,8.27735)">
            <path d="M602.525,137.841L741.872,137.841C762.115,137.841 779.848,139.803 795.069,143.726C808.878,147.335 821.118,154.71 831.789,165.852C839.949,174.169 845.951,184.604 849.796,197.158C853.641,209.712 855.563,224.923 855.563,242.793L855.563,458.905L768,458.905L768,247.026C768,236.054 766.038,228.059 762.115,223.043C757.251,217.085 747.365,214.106 732.457,214.106L690.088,214.106L690.088,458.905L602.525,458.905L602.525,137.841Z" style="fill:rgb(0,110,137);fill-opacity:0.17;fill-rule:nonzero;"/>
        </g>
        <g transform="matrix(0.149224,0,0,0.149224,92.3573,8.27735)">
            <path d="M988.084,137.841C986.044,146.621 985.024,153.443 985.024,158.305C985.024,165.204 987.064,172.339 991.144,179.708C995.224,187.077 1002.44,196.564 1012.8,208.169C1033.67,232.005 1048.15,249.058 1056.23,259.329C1064.31,269.6 1070.86,279.282 1075.88,288.377C1081.85,299.197 1086.12,309.272 1088.71,318.601C1091.3,327.931 1092.6,337.927 1092.6,348.591C1092.6,361.92 1090.32,374.895 1085.77,387.518C1081.22,400.14 1074.86,411.235 1066.7,420.802C1045.05,446.204 1011.86,458.905 967.135,458.905L878.16,458.905L878.16,382.876L957.014,382.876C973.804,382.876 985.809,378.718 993.027,370.401C998.834,363.496 1001.74,356.042 1001.74,348.039C1001.74,338.781 998.441,329.248 991.85,319.44C985.26,309.632 969.018,289.978 943.126,260.476C931.2,246.667 922.059,235.329 915.704,226.463C909.348,217.597 904.68,209.476 901.698,202.101C896.677,189.704 894.166,178.406 894.166,168.206C894.166,160.673 895.264,150.552 897.461,137.841L988.084,137.841Z" style="fill:rgb(0,110,137);fill-opacity:0.17;fill-rule:nonzero;"/>
        </g>
    </g>
    <g id="LUVFANS1" serif:id="LUVFANS" transform="matrix(1.40033,0,0,1.40033,-121.096,74.1265)">
        <g transform="matrix(0.149224,0,0,0.149224,109.731,5.68357)">
            <path d="M247.812,261.418L218.065,337.682L108.729,338.072L59.392,473.68L-28.171,473.68L41.942,259.86L247.812,261.418ZM295.35,156.961L261.001,233.225L48.175,234.784L73.179,156.679L295.35,156.961Z" style="fill:rgb(227,120,212);fill-opacity:0.17;fill-rule:nonzero;"/>
        </g>
        <g transform="matrix(0.149224,0,0,0.149224,92.3573,8.27735)">
            <path d="M521.411,139.743L589.814,458.905L288.45,458.905L324.92,355.212L404.951,355.212L399.316,382.876L481.066,382.876L426.08,139.743L521.411,139.743Z" style="fill:rgb(227,120,212);fill-opacity:0.17;fill-rule:nonzero;"/>
        </g>
        <g transform="matrix(0.149224,0,0,0.149224,92.3573,8.27735)">
            <path d="M602.525,137.841L741.872,137.841C762.115,137.841 779.848,139.803 795.069,143.726C808.878,147.335 821.118,154.71 831.789,165.852C839.949,174.169 845.951,184.604 849.796,197.158C853.641,209.712 855.563,224.923 855.563,242.793L855.563,458.905L768,458.905L768,247.026C768,236.054 766.038,228.059 762.115,223.043C757.251,217.085 747.365,214.106 732.457,214.106L690.088,214.106L690.088,458.905L602.525,458.905L602.525,137.841Z" style="fill:rgb(227,120,212);fill-opacity:0.17;fill-rule:nonzero;"/>
        </g>
        <g transform="matrix(0.149224,0,0,0.149224,92.3573,8.27735)">
            <path d="M988.084,137.841C986.044,146.621 985.024,153.443 985.024,158.305C985.024,165.204 987.064,172.339 991.144,179.708C995.224,187.077 1002.44,196.564 1012.8,208.169C1033.67,232.005 1048.15,249.058 1056.23,259.329C1064.31,269.6 1070.86,279.282 1075.88,288.377C1081.85,299.197 1086.12,309.272 1088.71,318.601C1091.3,327.931 1092.6,337.927 1092.6,348.591C1092.6,361.92 1090.32,374.895 1085.77,387.518C1081.22,400.14 1074.86,411.235 1066.7,420.802C1045.05,446.204 1011.86,458.905 967.135,458.905L878.16,458.905L878.16,382.876L957.014,382.876C973.804,382.876 985.809,378.718 993.027,370.401C998.834,363.496 1001.74,356.042 1001.74,348.039C1001.74,338.781 998.441,329.248 991.85,319.44C985.26,309.632 969.018,289.978 943.126,260.476C931.2,246.667 922.059,235.329 915.704,226.463C909.348,217.597 904.68,209.476 901.698,202.101C896.677,189.704 894.166,178.406 894.166,168.206C894.166,160.673 895.264,150.552 897.461,137.841L988.084,137.841Z" style="fill:rgb(227,120,212);fill-opacity:0.17;fill-rule:nonzero;"/>
        </g>
    </g>
    <g id="LUVFANS2" serif:id="LUVFANS" transform="matrix(7.17773,0,0,7.17773,583.547,-329.635)">
        <g transform="matrix(0.149224,0,0,0.149224,-165.551,7.93677)">
            <path d="M1205.82,137.841L1205.82,382.876L1315.98,382.876L1315.98,458.905L1211.75,458.905C1149.52,456.164 1119.85,436.82 1118.25,385.907L1118.25,137.841L1205.82,137.841Z" style="fill:rgb(93,93,199);fill-opacity:0.17;fill-rule:nonzero;"/>
        </g>
        <g transform="matrix(0.149224,0,0,0.149224,-165.551,7.93677)">
            <path d="M1585.25,137.841L1585.25,458.905L1434.61,458.905C1415.31,458.905 1398.91,456.716 1385.41,452.337C1376.47,449.362 1368.11,444.316 1360.35,437.198C1352.58,430.08 1346.42,421.673 1341.87,411.975C1335.28,398.519 1331.98,378.62 1331.98,352.276L1331.98,137.841L1419.54,137.841L1419.54,342.155C1419.54,352.511 1420.17,360.083 1421.43,364.869C1422.68,369.655 1425.04,373.539 1428.49,376.521C1431.16,378.875 1434.69,380.522 1439.08,381.464C1443.47,382.405 1449.44,382.876 1456.97,382.876L1497.69,382.876L1497.69,137.841L1585.25,137.841Z" style="fill:rgb(93,93,199);fill-opacity:0.17;fill-rule:nonzero;"/>
        </g>
        <g transform="matrix(0.149224,0,0,0.149224,-165.551,7.93677)">
            <path d="M1901.14,139.253L1794.51,458.905L1698.71,458.905L1598.2,137.841L1691.41,137.841L1731.66,284.846C1735.74,299.901 1741.08,327.029 1747.67,366.23C1753.32,331.731 1758.73,305.623 1763.91,287.906L1807.69,137.841L1901.14,139.253Z" style="fill:rgb(93,93,199);fill-opacity:0.17;fill-rule:nonzero;"/>
        </g>
        <g transform="matrix(0.149224,0,0,0.149224,109.731,5.68357)">
            <path d="M247.812,261.418L218.065,337.682L108.729,338.072L59.392,473.68L-28.171,473.68L41.942,259.86L247.812,261.418ZM295.35,156.961L261.001,233.225L48.175,234.784L73.179,156.679L295.35,156.961Z" style="fill:rgb(93,93,199);fill-opacity:0.17;fill-rule:nonzero;"/>
        </g>
    </g>
    <g id="LUVFANS3" serif:id="LUVFANS" transform="matrix(5.78414,0,0,5.78414,-5.10356,55.3335)">
        <g transform="matrix(0.149224,0,0,0.149224,-165.551,7.93677)">
            <path d="M1205.82,137.841L1205.82,382.876L1315.98,382.876L1315.98,458.905L1211.75,458.905C1149.52,456.164 1119.85,436.82 1118.25,385.907L1118.25,137.841L1205.82,137.841Z" style="fill:rgb(115,43,255);fill-opacity:0.07;fill-rule:nonzero;"/>
        </g>
        <g transform="matrix(0.149224,0,0,0.149224,-165.551,7.93677)">
            <path d="M1585.25,137.841L1585.25,458.905L1434.61,458.905C1415.31,458.905 1398.91,456.716 1385.41,452.337C1376.47,449.362 1368.11,444.316 1360.35,437.198C1352.58,430.08 1346.42,421.673 1341.87,411.975C1335.28,398.519 1331.98,378.62 1331.98,352.276L1331.98,137.841L1419.54,137.841L1419.54,342.155C1419.54,352.511 1420.17,360.083 1421.43,364.869C1422.68,369.655 1425.04,373.539 1428.49,376.521C1431.16,378.875 1434.69,380.522 1439.08,381.464C1443.47,382.405 1449.44,382.876 1456.97,382.876L1497.69,382.876L1497.69,137.841L1585.25,137.841Z" style="fill:rgb(115,43,255);fill-opacity:0.07;fill-rule:nonzero;"/>
        </g>
        <g transform="matrix(0.149224,0,0,0.149224,-165.551,7.93677)">
            <path d="M1901.14,139.253L1794.51,458.905L1698.71,458.905L1598.2,137.841L1691.41,137.841L1731.66,284.846C1735.74,299.901 1741.08,327.029 1747.67,366.23C1753.32,331.731 1758.73,305.623 1763.91,287.906L1807.69,137.841L1901.14,139.253Z" style="fill:rgb(115,43,255);fill-opacity:0.07;fill-rule:nonzero;"/>
        </g>
        <g transform="matrix(0.149224,0,0,0.149224,109.731,5.68357)">
            <path d="M247.812,261.418L218.065,337.682L108.729,338.072L59.392,473.68L-28.171,473.68L41.942,259.86L247.812,261.418ZM295.35,156.961L261.001,233.225L48.175,234.784L73.179,156.679L295.35,156.961Z" style="fill:rgb(115,43,255);fill-opacity:0.07;fill-rule:nonzero;"/>
        </g>
        <g transform="matrix(0.149224,0,0,0.149224,92.3573,8.27735)">
            <path d="M521.411,139.743L589.814,458.905L288.45,458.905L324.92,355.212L404.951,355.212L399.316,382.876L481.066,382.876L426.08,139.743L521.411,139.743Z" style="fill:rgb(115,43,255);fill-opacity:0.07;fill-rule:nonzero;"/>
        </g>
        <g transform="matrix(0.149224,0,0,0.149224,92.3573,8.27735)">
            <path d="M602.525,137.841L741.872,137.841C762.115,137.841 779.848,139.803 795.069,143.726C808.878,147.335 821.118,154.71 831.789,165.852C839.949,174.169 845.951,184.604 849.796,197.158C853.641,209.712 855.563,224.923 855.563,242.793L855.563,458.905L768,458.905L768,247.026C768,236.054 766.038,228.059 762.115,223.043C757.251,217.085 747.365,214.106 732.457,214.106L690.088,214.106L690.088,458.905L602.525,458.905L602.525,137.841Z" style="fill:rgb(115,43,255);fill-opacity:0.07;fill-rule:nonzero;"/>
        </g>
        <g transform="matrix(0.149224,0,0,0.149224,92.3573,8.27735)">
            <path d="M988.084,137.841C986.044,146.621 985.024,153.443 985.024,158.305C985.024,165.204 987.064,172.339 991.144,179.708C995.224,187.077 1002.44,196.564 1012.8,208.169C1033.67,232.005 1048.15,249.058 1056.23,259.329C1064.31,269.6 1070.86,279.282 1075.88,288.377C1081.85,299.197 1086.12,309.272 1088.71,318.601C1091.3,327.931 1092.6,337.927 1092.6,348.591C1092.6,361.92 1090.32,374.895 1085.77,387.518C1081.22,400.14 1074.86,411.235 1066.7,420.802C1045.05,446.204 1011.86,458.905 967.135,458.905L878.16,458.905L878.16,382.876L957.014,382.876C973.804,382.876 985.809,378.718 993.027,370.401C998.834,363.496 1001.74,356.042 1001.74,348.039C1001.74,338.781 998.441,329.248 991.85,319.44C985.26,309.632 969.018,289.978 943.126,260.476C931.2,246.667 922.059,235.329 915.704,226.463C909.348,217.597 904.68,209.476 901.698,202.101C896.677,189.704 894.166,178.406 894.166,168.206C894.166,160.673 895.264,150.552 897.461,137.841L988.084,137.841Z" style="fill:rgb(115,43,255);fill-opacity:0.07;fill-rule:nonzero;"/>
        </g>
    </g>
</svg>
